<svg xmlns="http://www.w3.org/2000/svg" viewBox="0 0 83.26 85.21"><defs><style>.cls-1{fill:none;stroke:#231f20;stroke-miterlimit:10;}</style></defs><title>GF logo</title><g id="Layer_2" data-name="Layer 2"><g id="Layer_1-2" data-name="Layer 1"><path class="cls-1" d="M69.73,12.37A13.5,13.5,0,0,0,62.44,19,7.65,7.65,0,0,1,60.51,22a3.39,3.39,0,0,1-2.26,1.13c-1.07,0-1.32-.88-2.41-1.29-2-.77-4.43.9-5,1.29-2.29,1.58-2.18,3.26-4,3.7-1,.23-1-.19-3.06-.32a9.44,9.44,0,0,0-4.67.48c-1.08.5-1,.9-4,3.87A20.4,20.4,0,0,1,32.8,33c-2.13,1.41-4.07.68-6.76.81C22,34,16.92,36,16.54,38.62c-.28,1.83,1.81,3.55,2.57,4.19a12.16,12.16,0,0,0,7.57,2.41c5.9.27,9.4-.41,13.86-.8,5.42-.48,10.91-.91,17.23,1,2.93.87,6.63,2.41,9,5.8a6.41,6.41,0,0,1,1.45,3.87c-.09,3.23-3.48,5.4-4.35,6-2.22,1.42-5.38,2.43-15.78,1.13-8.19-1-8.12-1.89-15.79-2.74a111.44,111.44,0,0,0-13.85-.65c-4.11.06-11.16,1-14.09,1.31"/><path class="cls-1" d="M82.65,45.74l0,0c-1.34,16.09-11.54,31-26.13,36.47C36.46,89.8,11.48,79.76,3.2,57.9S6.49,10.62,26.59,3,71.9,5.52,80.18,27.38a40.76,40.76,0,0,1,2.09,7.82"/><polyline class="cls-1" points="31.18 33.73 40.08 33.52 50.01 34.55 57.17 36.15 63.89 36.01 70.17 36.01 76.45 35.28 80.54 35.42 81.71 34.99"/></g></g></svg>