<svg xmlns="http://www.w3.org/2000/svg" viewBox="0 0 308.49 205.44"><defs><style>.cls-1{fill:none;stroke:#898989;stroke-miterlimit:10;stroke-width:8px;}.cls-2{font-size:34px;fill:#231f20;font-family:Avenir-Medium, Avenir;font-weight:500;}.cls-3{letter-spacing:-0.02em;}</style></defs><title>GFlogo</title><g id="Layer_2" data-name="Layer 2"><g id="Layer_1-2" data-name="Layer 1"><path class="cls-1" d="M135.81,44.3c-8.83.29-11.5,9.93-13.54,18a21.63,21.63,0,0,1-3.59,8c-.92,1.2-2.35,3-4.18,3-2-.06-2.47-2.3-4.49-3.38-3.74-2-8.23,2.36-9.27,3.38-4.27,4.16-4.06,8.55-7.48,9.72-1.75.6-4.07-2.54-7.81-2.87a16.49,16.49,0,0,0-8.67,1.27c-2.18.95-18,6.63-14.41,14.78,2.54,5.79,43.8,6,50.59,13.23a8.59,8.59,0,0,1,2.43,5.48c-.08.33-.81,4.29-4.35,5.31-12.92,3.73-52.32-2.08-52.32-2.08s-24.65-4.73-33.46-1.48a7.92,7.92,0,0,0-4.61,3.65,6.58,6.58,0,0,0-.34,4.54,8.28,8.28,0,0,0,4,4.53c7.11,4.26,25.09,4.18,31.59,4.32,11.29.22,17.45.21,25.78.22,11.3,0,18.73,0,31.87-.46-31.57,1.09,40.48-3.27,45.57,6.94"/><path class="cls-1" d="M63.88,97.75c1.18,0,71.62,12.86,100.52-1.26.59-.29-10-22.47-15.3-36.8-1.61-4.32-5.39-16.33-14-15.26"/><text class="cls-2" transform="translate(44.51 32.71)">Go<tspan class="cls-3" x="46.65" y="0">r</tspan><tspan x="58.62" y="0">ge</tspan></text><text class="cls-2" transform="translate(0 58.4)">Friends</text></g></g></svg>