<svg xmlns="http://www.w3.org/2000/svg" viewBox="0 0 270.86 248.37"><defs><style>.cls-1{font-size:8px;font-family:Avenir-Heavy, Avenir;letter-spacing:0.55em;}.cls-1,.cls-4{fill:#231f20;font-weight:800;}.cls-2,.cls-3,.cls-5{fill:none;stroke-miterlimit:10;}.cls-2{stroke:#231f20;stroke-width:2px;}.cls-3{stroke:#020202;stroke-width:8px;}.cls-4{font-size:19px;font-family:Avenir-Black, Avenir;letter-spacing:0.07em;}.cls-5{stroke:#0a7275;stroke-width:6px;}</style></defs><title>gorgepatch_1</title><g id="Layer_2" data-name="Layer 2"><g id="Layer_1-2" data-name="Layer 1"><text class="cls-1" transform="translate(55.91 80.92)">FRIENDS</text><line class="cls-2" x1="122.86" y1="76.75" x2="146.66" y2="76.75"/><line class="cls-2" x1="27.83" y1="77.82" x2="51.63" y2="77.82"/><path class="cls-3" d="M120.29,9c-11.36.24-15.89,13.7-18.51,20.29-.49,1.21-.68,5.58-3.69,8.07-1.19,1-3,2.47-5.38,2.43-2.57,0-4.1-3.37-6.7-4.26-4.81-1.65-10.58,1.94-11.93,2.77-5.48,3.42-5.56,9.2-10,10.16-2.26.48-4.89-4.26-9.7-4.54a32.66,32.66,0,0,0-11.16,1,202.42,202.42,0,0,0-20.76,7.87"/><path class="cls-3" d="M152.76,53.47c-5.16-.83-11.53-12.93-16.49-26.25-1.42-3.83-5.53-19.1-16.58-18.22"/><path class="cls-3" d="M26.64,51.18c-9.82,3.45-18,10.21-17.67,15V85.92c.24,5.45,8.54,8.44,19,8.44H149.07C159.51,94.36,161,90.69,161,86V66.27c-.23-4.49,2-13.1-9-12.65"/><text class="cls-4" transform="translate(47.04 70.14)">GORGE</text><path class="cls-5" d="M122.39,3C110,3.26,102.73,16,99.86,23.25c-.53,1.33-.37,5.24-3.66,8-1.3,1.08-3.32,2.7-5.89,2.65-2.81,0-2.49-1.68-5.33-2.66-5.26-1.81-9.86-.73-11.32.18-6,3.74-6.09,10.06-10.89,11.1-2.47.54-5.35-4.65-10.61-5-4.23-.24-5.92,1.34-10.19,2.53-3.06.86-16.17,5.58-26.42,10.07"/><path class="cls-5" d="M158,50.79c-5.64-.91-12.6-14.15-18-28.71-1.56-4.18-5.47-19.76-17.56-18.8"/><path class="cls-5" d="M20.06,48.29C9.32,52.06,2.6,59.73,3,64.93V86.56c.26,6,5.17,12.83,16.59,12.83H152.05c11.42,0,14.95-7.9,14.95-13V64.78c-.27-4.91,2.21-14.32-9.84-13.83"/></g></g></svg>